<svg xmlns="http://www.w3.org/2000/svg" xmlns:xlink="http://www.w3.org/1999/xlink" width="24" height="216"><defs><symbol id="a"><path d="M6 2c-1.1 0-1.99.9-1.99 2L4 20c0 1.1.89 2 1.99 2H18c1.1 0 2-.9 2-2V8l-6-6H6zm7 7V3.5L18.5 9H13z"/><path d="M0 0h24v24H0z" fill="none"/></symbol><symbol id="b"><path d="M10 4H4c-1.1 0-1.99.9-1.99 2L2 18c0 1.1.9 2 2 2h16c1.1 0 2-.9 2-2V8c0-1.1-.9-2-2-2h-8l-2-2z"/><path d="M0 0h24v24H0z" fill="none"/></symbol><symbol id="c"><path d="M0 0h24v24H0z" fill="none"/><path d="M20 6h-8l-2-2H4c-1.1 0-1.99.9-1.99 2L2 18c0 1.1.9 2 2 2h16c1.1 0 2-.9 2-2V8c0-1.1-.9-2-2-2zm0 12H4V8h16v10z"/></symbol><symbol id="d"><path d="M10 6L8.59 7.41 13.17 12l-4.58 4.59L10 18l6-6z"/><path d="M0 0h24v24H0z" fill="none"/></symbol><symbol id="e"><path d="M16.59 8.59L12 13.17 7.41 8.59 6 10l6 6 6-6z"/><path d="M0 0h24v24H0z" fill="none"/></symbol><symbol id="f"><path d="M15.5 14h-.79l-.28-.27A6.471 6.471 0 0 0 16 9.5 6.5 6.5 0 1 0 9.5 16c1.61 0 3.09-.59 4.23-1.57l.27.28v.79l5 4.99L20.49 19l-4.99-5zm-6 0C7.01 14 5 11.99 5 9.5S7.01 5 9.5 5 14 7.01 14 9.5 11.99 14 9.5 14z"/><path d="M0 0h24v24H0z" fill="none"/></symbol><symbol id="g"><path d="M0 0h24v24H0z" fill="none"/><path d="M17 3H5a2 2 0 0 0-2 2v14a2 2 0 0 0 2 2h14c1.1 0 2-.9 2-2V7l-4-4zm-5 16c-1.66 0-3-1.34-3-3s1.34-3 3-3 3 1.34 3 3-1.34 3-3 3zm3-10H5V5h10v4z"/></symbol><symbol id="h"><path d="M0 0h24v24H0z" fill="none"/><path d="M9 16.2L4.8 12l-1.4 1.4L9 19 21 7l-1.4-1.4L9 16.2z"/></symbol><symbol id="i"><path d="M0 0h24v24H0z" fill="none"/><path d="M1 21h22L12 2 1 21zm12-3h-2v-2h2v2zm0-4h-2v-4h2v4z"/></symbol></defs><use xlink:href="#a"/><use xlink:href="#b" y="24"/><use xlink:href="#c" y="48"/><use xlink:href="#d" y="72"/><use xlink:href="#e" y="96"/><use xlink:href="#f" y="120"/><use xlink:href="#g" y="144"/><use xlink:href="#h" y="168"/><use xlink:href="#i" y="192"/></svg>